<svg width="199" height="64" viewBox="0 0 199 64" fill="none" xmlns="http://www.w3.org/2000/svg">
<path d="M47.6665 24.0719L51.6027 24.0698C51.6073 24.0698 51.6119 24.0689 51.6162 24.0671C51.6205 24.0654 51.6244 24.0628 51.6277 24.0595C51.631 24.0562 51.6336 24.0523 51.6354 24.048C51.6372 24.0437 51.6381 24.0391 51.6381 24.0344C51.6057 21.0017 50.6264 18.4434 48.7001 16.3593C45.6337 13.041 40.7752 11.9983 36.4334 12.1723C34.4276 12.2532 32.4844 12.6911 30.604 13.486C30.2419 13.6388 29.8596 13.7015 29.4885 13.5447C27.2669 12.6041 24.9856 12.1406 22.6447 12.1541C21.9293 12.1588 21.2672 12.1875 20.6584 12.2401C16.2206 12.6254 11.9162 14.462 9.68723 18.468C8.52721 20.5524 8.11862 23.0018 8.3664 25.3785C8.77701 29.3289 11.0687 32.5035 14.5913 34.2663C17.2319 35.5881 20.2407 36.0554 23.2302 35.9785C25.3204 35.9252 27.3407 35.49 29.2913 34.6728C29.5744 34.5545 29.8971 34.6101 30.1964 34.598C30.3657 34.5913 30.5352 34.6236 30.7051 34.6951C32.7784 35.5689 34.9818 36.0001 37.3153 35.9886C40.3312 35.9734 43.4077 35.4142 45.9159 33.9679C49.2762 32.0295 51.1702 29.1124 51.5976 25.2167C51.6017 25.179 51.6229 25.1601 51.6614 25.1601C52.7469 25.1547 53.9146 25.1554 55.1647 25.1621C55.4175 25.1631 55.6987 25.0893 55.8595 24.8809C56.0648 24.6129 55.9788 24.3035 55.6734 24.173C55.5217 24.1083 55.3693 24.0756 55.2162 24.0749C54.1921 24.0702 53.022 24.0688 51.7059 24.0708C51.6728 24.0708 51.6556 24.0874 51.6543 24.1204L51.6108 25.0822C51.6088 25.1334 51.5821 25.1587 51.5309 25.1581C50.4494 25.156 49.2304 25.1567 47.8738 25.1601C47.3439 25.1611 46.9687 24.5158 47.5441 24.17C47.592 24.1416 47.6328 24.1089 47.6665 24.0719Z" stroke="white" stroke-width="0.20227"/>
<path d="M47.6664 24.0715C47.6893 24.0425 47.7007 24.0172 47.7007 23.9956C47.6569 21.7349 47.0147 19.6681 45.7741 17.795C44.3249 15.6055 42.0665 13.8659 39.4916 13.3137C37.3981 12.864 35.3333 13.1496 33.2971 14.1704C32.9168 14.3612 32.5874 14.6069 32.309 14.9076C31.2754 16.0232 30.5533 17.5938 30.3025 19.0582C30.2317 19.4739 29.7553 19.3889 29.6957 19.0289C29.4152 17.3325 28.6385 15.8677 27.3655 14.6346C27.1079 14.3844 26.8093 14.1774 26.4694 14.0136C24.4073 13.0215 22.2693 12.805 19.9927 13.252C14.4536 14.3403 12.0091 19.4688 12.263 24.7005C12.5431 30.4723 17.6899 35.878 23.6751 34.9344C25.6331 34.6256 27.354 33.7768 28.838 32.3878C28.867 32.3609 28.8815 32.3278 28.8815 32.2887V24.12C28.8815 24.087 28.898 24.0705 28.9311 24.0705L47.6664 24.0715Z" stroke="white" stroke-width="0.20227"/>
<path d="M34.8832 25.2882C33.2498 25.8212 32.2203 27.409 32.1525 29.0767C32.1249 29.7644 32.1215 31.1608 32.1424 33.2657C32.1424 33.3015 32.1572 33.3295 32.1869 33.3497C33.5745 34.3266 35.0993 34.8984 36.7612 35.0649C41.1798 35.5079 45.0715 32.4779 46.7706 28.5579C47.2284 27.5014 47.5146 26.3973 47.6292 25.2457C47.6304 25.2346 47.6292 25.2233 47.6257 25.2126C47.6223 25.202 47.6166 25.1922 47.6092 25.1839C47.6018 25.1756 47.5927 25.169 47.5825 25.1645C47.5724 25.1599 47.5614 25.1577 47.5503 25.1577C43.7065 25.1571 39.8661 25.1571 36.029 25.1577C35.5308 25.1577 35.1488 25.2012 34.8832 25.2882Z" stroke="white" stroke-width="0.20227"/>
<path d="M47.6665 24.0719C47.6894 24.0429 47.7009 24.0176 47.7009 23.996C47.6571 21.7353 47.0149 19.6684 45.7743 17.7954C44.325 15.6058 42.0667 13.8663 39.4918 13.3141C37.3983 12.8644 35.3334 13.1499 33.2972 14.1707C32.917 14.3615 32.5876 14.6073 32.3091 14.908C31.2755 16.0235 30.5534 17.5942 30.3026 19.0586C30.2318 19.4743 29.7555 19.3893 29.6958 19.0293C29.4153 17.3329 28.6386 15.8681 27.3657 14.6349C27.1081 14.3848 26.8094 14.1778 26.4696 14.014C24.4075 13.0218 22.2695 12.8054 19.9929 13.2524C14.4537 14.3406 12.0093 19.4692 12.2631 24.7009C12.5433 30.4727 17.6901 35.8784 23.6752 34.9348C25.6332 34.626 27.3542 33.7771 28.8382 32.3882C28.8672 32.3612 28.8817 32.3282 28.8817 32.2891V24.1204C28.8817 24.0874 28.8982 24.0708 28.9312 24.0708L47.6665 24.0719C47.6328 24.1089 47.592 24.1416 47.5441 24.17C46.9687 24.5158 47.3439 25.1611 47.8738 25.1601C49.2304 25.1567 50.4494 25.156 51.5309 25.1581C51.5821 25.1587 51.6088 25.1334 51.6108 25.0822L51.6543 24.1204C51.6556 24.0874 51.6728 24.0708 51.7059 24.0708C53.022 24.0688 54.1921 24.0702 55.2162 24.0749C55.3693 24.0756 55.5217 24.1083 55.6734 24.173C55.9788 24.3035 56.0648 24.6129 55.8595 24.8809C55.6987 25.0893 55.4175 25.1631 55.1647 25.1621C53.9146 25.1554 52.7469 25.1547 51.6614 25.1601C51.6229 25.1601 51.6017 25.179 51.5976 25.2167C51.1702 29.1124 49.2762 32.0295 45.9159 33.9679C43.4077 35.4142 40.3312 35.9734 37.3153 35.9886C34.9818 36.0001 32.7784 35.5689 30.7051 34.6951C30.5352 34.6236 30.3657 34.5913 30.1964 34.598C29.8971 34.6101 29.5744 34.5545 29.2913 34.6728C27.3407 35.49 25.3204 35.9252 23.2302 35.9785C20.2407 36.0554 17.2319 35.5881 14.5913 34.2663C11.0687 32.5035 8.77701 29.3289 8.3664 25.3785C8.11862 23.0018 8.52721 20.5524 9.68723 18.468C11.9162 14.462 16.2206 12.6254 20.6584 12.2401C21.2672 12.1875 21.9293 12.1588 22.6447 12.1541C24.9856 12.1406 27.2669 12.6041 29.4885 13.5447C29.8596 13.7015 30.2419 13.6388 30.604 13.486C32.4844 12.6911 34.4276 12.2532 36.4334 12.1723C40.7752 11.9983 45.6337 13.041 48.7001 16.3593C50.6264 18.4434 51.6057 21.0017 51.6381 24.0344C51.6381 24.0391 51.6372 24.0437 51.6354 24.048C51.6336 24.0523 51.631 24.0562 51.6277 24.0595C51.6244 24.0628 51.6205 24.0654 51.6162 24.0671C51.6119 24.0689 51.6073 24.0698 51.6027 24.0698L47.6665 24.0719ZM34.883 25.2885C33.2497 25.8215 32.2201 27.4093 32.1524 29.077C32.1247 29.7648 32.1214 31.1611 32.1423 33.2661C32.1423 33.3018 32.1571 33.3298 32.1868 33.35C33.5743 34.327 35.0991 34.8987 36.7611 35.0652C41.1797 35.5082 45.0714 32.4782 46.7705 28.5582C47.2283 27.5017 47.5145 26.3976 47.6291 25.246C47.6302 25.2349 47.629 25.2236 47.6256 25.2129C47.6221 25.2023 47.6165 25.1925 47.6091 25.1842C47.6016 25.1759 47.5925 25.1693 47.5824 25.1648C47.5723 25.1603 47.5613 25.158 47.5502 25.1581C43.7064 25.1574 39.866 25.1574 36.0289 25.1581C35.5306 25.1581 35.1487 25.2015 34.883 25.2885Z" fill="white"/>
<path d="M15.0196 52.8067C16.6097 52.8698 17.8804 52.0196 18.8099 50.8133C18.8796 50.7229 18.9148 50.7348 18.9156 50.8489L18.9179 51.5716C18.9179 51.6298 18.8988 51.6811 18.8605 51.7255C17.8448 52.8775 16.6036 53.4933 15.1368 53.573C13.0308 53.6879 11.0064 53.0399 9.79319 51.3429C8.38921 49.3806 8.32602 46.8162 9.45311 44.7435C10.3324 43.1274 11.6755 42.1133 13.4824 41.7012C14.4452 41.4814 15.4114 41.5266 16.3811 41.8368C16.8583 41.9892 17.3358 42.1581 17.8138 42.3435C18.3653 42.556 18.7421 42.1298 18.7835 41.6254C18.7865 41.5863 18.8076 41.5668 18.8467 41.5668L19.0558 41.5679C19.0864 41.5679 19.1017 41.5833 19.1017 41.6139V45.4708C19.1017 45.516 19.0791 45.5397 19.0339 45.542L18.8501 45.5524C18.8118 45.5539 18.7881 45.5359 18.7789 45.4984C18.4664 44.176 17.7115 42.9754 16.3972 42.5089C14.6244 41.8781 12.8482 42.7846 12.1347 44.4724C11.4591 46.0694 11.4591 47.9996 11.8348 49.7425C12.2071 51.467 13.1526 52.7308 15.0196 52.8067Z" fill="white"/>
<path d="M47.2511 52.6284C47.2764 52.6185 47.289 52.6001 47.289 52.5733C47.2974 51.6021 47.2917 50.6259 47.2718 49.6447C47.2591 48.9875 46.5215 48.7474 45.9666 48.8106C45.9557 48.8117 45.9447 48.8105 45.9343 48.8072C45.9239 48.8039 45.9143 48.7984 45.9061 48.7912C45.8979 48.784 45.8913 48.7751 45.8867 48.7652C45.8821 48.7553 45.8795 48.7445 45.8793 48.7336L45.8747 48.5808C45.8745 48.5735 45.8758 48.5662 45.8785 48.5593C45.8812 48.5525 45.8853 48.5463 45.8904 48.5411C45.8956 48.5358 45.9017 48.5317 45.9085 48.5288C45.9152 48.526 45.9225 48.5245 45.9298 48.5245H51.185C51.2233 48.5245 51.242 48.544 51.2413 48.5831L51.2367 48.7451C51.2358 48.768 51.226 48.7896 51.2092 48.8055C51.1925 48.8213 51.1702 48.8301 51.1471 48.8301C50.4612 48.8255 49.951 49.0588 49.9441 49.8331C49.935 50.7546 49.9334 51.6549 49.9396 52.5342C49.9396 52.5817 49.9181 52.615 49.8752 52.6342C48.1557 53.4093 46.3139 53.7096 44.3501 53.5349C43.5251 53.4606 42.7439 53.204 42.0063 52.7652C40.4851 51.8598 39.5652 50.5972 39.2466 48.9772C38.9823 47.6364 39.1524 46.1348 39.7567 44.9169C40.4173 43.5888 41.6294 42.4502 43.0403 41.9469C44.0559 41.585 45.1267 41.5081 46.201 41.6161C46.9995 41.6953 47.7842 42.017 48.5448 42.3249C49.102 42.5501 49.4421 42.2055 49.6029 41.708C49.6489 41.567 49.74 41.5215 49.8764 41.5713C49.9162 41.5858 49.9361 41.6145 49.9361 41.6574L49.9373 45.5178C49.9373 45.566 49.9143 45.5959 49.8683 45.6074C49.8116 45.6212 49.7573 45.6197 49.7052 45.6028C49.6692 45.5913 49.645 45.568 49.6328 45.5327C48.994 43.6347 47.5061 42.1583 45.4369 42.2422C43.7813 42.3089 42.7577 43.5106 42.3785 45.0364C41.9603 46.7176 41.9373 48.4138 42.3096 50.1249C42.6566 51.7219 43.6125 52.8238 45.3301 52.9444C45.9513 52.9881 46.5916 52.8827 47.2511 52.6284Z" fill="white"/>
<path d="M29.5719 46.201C29.5451 46.1267 29.5168 46.126 29.4869 46.1987L26.6215 53.2933C26.4461 53.7276 26.2734 53.7264 26.1033 53.2898C24.8954 50.1847 23.6673 47.0148 22.4188 43.7803C22.2686 43.3919 22.0886 42.9967 21.8788 42.5946C21.7355 42.3188 21.4885 42.1668 21.1377 42.1384C21.0872 42.1339 21.0619 42.1067 21.0619 42.0569L21.0596 41.8937C21.0588 41.8547 21.078 41.8351 21.117 41.8351L25.7839 41.834C25.813 41.834 25.8284 41.8489 25.8299 41.8788L25.8345 42.0431C25.8348 42.0543 25.8329 42.0654 25.8288 42.0759C25.8247 42.0863 25.8186 42.0958 25.8108 42.1039C25.8029 42.1119 25.7936 42.1183 25.7833 42.1227C25.7729 42.127 25.7618 42.1293 25.7506 42.1293C24.5994 42.135 24.843 42.9278 25.1141 43.647C25.8341 45.5526 26.5997 47.5345 27.4108 49.5926C27.4369 49.6577 27.4629 49.6574 27.4889 49.5915L29.1744 45.3416C29.192 45.298 29.1928 45.2539 29.1767 45.2095C28.8757 44.3731 28.5896 43.4459 28.1438 42.6842C27.9125 42.2897 27.5215 42.1005 26.9708 42.1166C26.9608 42.1174 26.9547 42.1128 26.9524 42.1028C26.9309 42.0209 26.926 41.9359 26.9375 41.8478C26.939 41.8393 26.9436 41.8351 26.9512 41.8351L32.1995 41.834C32.221 41.834 32.2317 41.8447 32.2317 41.8662L32.2374 42.0695C32.2382 42.1093 32.219 42.1281 32.18 42.1258C31.6618 42.1028 30.9116 42.1936 31.1 42.9197C31.1804 43.2322 31.2811 43.5516 31.4022 43.8779C32.0793 45.707 32.7452 47.5108 33.4001 49.2893C33.4285 49.3667 33.4568 49.3667 33.4851 49.2893C34.1576 47.4556 34.8386 45.5833 35.5279 43.6723C35.6627 43.3 35.693 42.9565 35.6187 42.6417C35.5176 42.2097 35.0212 42.1293 34.6387 42.1212C34.5827 42.1197 34.5552 42.091 34.5559 42.035L34.5582 41.9087C34.559 41.8604 34.5831 41.8363 34.6306 41.8363L37.3719 41.834C37.411 41.834 37.4286 41.8531 37.4248 41.8914L37.4121 42.0592C37.4083 42.1021 37.385 42.1266 37.3421 42.1327C36.9453 42.1871 36.665 42.4215 36.5011 42.8358C36.2828 43.385 36.0783 43.9223 35.8875 44.4478C34.8175 47.3806 33.7157 50.4057 32.5821 53.5231C32.5668 53.5652 32.5361 53.5863 32.4902 53.5863L32.3362 53.584C32.2887 53.5832 32.2566 53.5602 32.2397 53.515L29.5719 46.201Z" fill="white"/>
<path d="M64 9.01416L64 55.8874" stroke="#FFA502" stroke-width="1.35211" stroke-linecap="round"/>
<path d="M82.5541 30.613H74.095L72.4274 34.5283H69.1887L76.8019 17.6101H79.8955L87.5329 34.5283H84.2459L82.5541 30.613ZM81.5148 28.1477L78.3246 20.7521L75.1584 28.1477H81.5148ZM97.2792 34.77C95.5712 34.77 94.0244 34.3994 92.6388 33.6582C91.2692 32.901 90.1896 31.8617 89.4001 30.5405C88.6267 29.2192 88.24 27.7288 88.24 26.0692C88.24 24.4096 88.6348 22.9192 89.4243 21.598C90.2138 20.2767 91.2934 19.2455 92.6629 18.5044C94.0486 17.7471 95.5954 17.3684 97.3033 17.3684C98.689 17.3684 99.9539 17.6101 101.098 18.0935C102.242 18.5769 103.209 19.2778 103.998 20.1962L101.968 22.1055C100.743 20.7843 99.2369 20.1237 97.4484 20.1237C96.2883 20.1237 95.249 20.3815 94.3306 20.8971C93.4122 21.3966 92.6951 22.0975 92.1795 22.9998C91.6639 23.9021 91.4061 24.9252 91.4061 26.0692C91.4061 27.2132 91.6639 28.2364 92.1795 29.1387C92.6951 30.041 93.4122 30.7499 94.3306 31.2655C95.249 31.765 96.2883 32.0148 97.4484 32.0148C99.2369 32.0148 100.743 31.3461 101.968 30.0087L103.998 31.9423C103.209 32.8607 102.234 33.5616 101.074 34.0449C99.9297 34.5283 98.6649 34.77 97.2792 34.77ZM117.627 30.613H109.168L107.501 34.5283H104.262L111.875 17.6101H114.969L122.606 34.5283H119.319L117.627 30.613ZM116.588 28.1477L113.398 20.7521L110.232 28.1477H116.588ZM124.758 17.6101H132.153C133.958 17.6101 135.561 17.9646 136.963 18.6735C138.365 19.3664 139.452 20.3573 140.226 21.6463C140.999 22.9192 141.386 24.3935 141.386 26.0692C141.386 27.7449 140.999 29.2273 140.226 30.5163C139.452 31.7892 138.365 32.7801 136.963 33.4891C135.561 34.1819 133.958 34.5283 132.153 34.5283H124.758V17.6101ZM132.008 31.8697C133.249 31.8697 134.337 31.6361 135.271 31.1688C136.222 30.6855 136.947 30.0087 137.446 29.1387C137.962 28.2525 138.22 27.2293 138.22 26.0692C138.22 24.9091 137.962 23.894 137.446 23.0239C136.947 22.1378 136.222 21.461 135.271 20.9938C134.337 20.5104 133.249 20.2687 132.008 20.2687H127.9V31.8697H132.008ZM157.414 31.8939V34.5283H144.725V17.6101H157.076V20.2445H147.867V24.6433H156.036V27.2293H147.867V31.8939H157.414ZM176.457 34.5283L176.433 23.314L170.874 32.5948H169.472L163.913 23.459V34.5283H160.917V17.6101H163.503L170.222 28.8245L176.82 17.6101H179.406L179.43 34.5283H176.457ZM191.299 28.5586V34.5283H188.157V28.6069L181.51 17.6101H184.87L189.824 25.8517L194.827 17.6101H197.921L191.299 28.5586Z" fill="white"/>
<path d="M75.4473 52.3914V53.4722H70.2416V46.5313H75.3084V47.6121H71.5306V49.4167H74.8821V50.4777H71.5306V52.3914H75.4473ZM79.7696 48.1178C80.4373 48.1178 80.9727 48.3128 81.376 48.7028C81.7792 49.0928 81.9808 49.6712 81.9808 50.438V53.4722H80.7414V50.5967C80.7414 50.134 80.6323 49.7869 80.4141 49.5555C80.196 49.3176 79.8853 49.1986 79.4821 49.1986C79.026 49.1986 78.6657 49.3374 78.4013 49.615C78.1369 49.8861 78.0047 50.2794 78.0047 50.795V53.4722H76.7652V48.1773H77.9452V48.8615C78.1501 48.6169 78.4079 48.4318 78.7186 48.3062C79.0293 48.1806 79.3796 48.1178 79.7696 48.1178ZM88.8567 48.1773V52.669C88.8567 54.5331 87.9048 55.4652 86.0011 55.4652C85.4921 55.4652 85.0095 55.3991 84.5534 55.2669C84.0973 55.1413 83.7205 54.9562 83.423 54.7116L83.9783 53.7795C84.2097 53.9712 84.5005 54.1233 84.8509 54.2357C85.2078 54.3546 85.5681 54.4141 85.9317 54.4141C86.5134 54.4141 86.9397 54.2819 87.2108 54.0175C87.4818 53.7531 87.6173 53.3499 87.6173 52.8078V52.5302C87.4058 52.7616 87.148 52.9367 86.8439 53.0557C86.5398 53.1747 86.206 53.2342 85.8424 53.2342C85.34 53.2342 84.8839 53.1284 84.4741 52.9169C84.0708 52.6988 83.7502 52.3947 83.5123 52.0047C83.2809 51.6147 83.1652 51.1685 83.1652 50.6661C83.1652 50.1637 83.2809 49.7208 83.5123 49.3374C83.7502 48.9474 84.0708 48.6466 84.4741 48.4351C84.8839 48.2236 85.34 48.1178 85.8424 48.1178C86.2258 48.1178 86.5729 48.1806 86.8835 48.3062C87.2008 48.4318 87.4653 48.6235 87.6768 48.8813V48.1773H88.8567ZM86.0308 52.1832C86.5001 52.1832 86.8835 52.0443 87.181 51.7667C87.4851 51.4825 87.6371 51.1156 87.6371 50.6661C87.6371 50.2232 87.4851 49.8629 87.181 49.5853C86.8835 49.3077 86.5001 49.1688 86.0308 49.1688C85.5549 49.1688 85.1649 49.3077 84.8608 49.5853C84.5633 49.8629 84.4146 50.2232 84.4146 50.6661C84.4146 51.1156 84.5633 51.4825 84.8608 51.7667C85.1649 52.0443 85.5549 52.1832 86.0308 52.1832ZM90.4862 48.1773H91.7256V53.4722H90.4862V48.1773ZM91.1109 47.3047C90.8861 47.3047 90.6977 47.2353 90.5457 47.0965C90.3937 46.9511 90.3176 46.7726 90.3176 46.5611C90.3176 46.3495 90.3937 46.1744 90.5457 46.0355C90.6977 45.8901 90.8861 45.8174 91.1109 45.8174C91.3356 45.8174 91.524 45.8868 91.6761 46.0256C91.8281 46.1578 91.9041 46.3264 91.9041 46.5313C91.9041 46.7495 91.8281 46.9346 91.6761 47.0866C91.5306 47.232 91.3422 47.3047 91.1109 47.3047ZM96.3568 48.1178C97.0244 48.1178 97.5599 48.3128 97.9631 48.7028C98.3663 49.0928 98.5679 49.6712 98.5679 50.438V53.4722H97.3285V50.5967C97.3285 50.134 97.2194 49.7869 97.0013 49.5555C96.7832 49.3176 96.4725 49.1986 96.0692 49.1986C95.6131 49.1986 95.2529 49.3374 94.9885 49.615C94.724 49.8861 94.5918 50.2794 94.5918 50.795V53.4722H93.3524V48.1773H94.5323V48.8615C94.7373 48.6169 94.9951 48.4318 95.3057 48.3062C95.6164 48.1806 95.9668 48.1178 96.3568 48.1178ZM105.166 50.8545C105.166 50.9404 105.16 51.0627 105.146 51.2214H100.992C101.065 51.6114 101.253 51.922 101.557 52.1534C101.868 52.3782 102.251 52.4905 102.707 52.4905C103.289 52.4905 103.768 52.2988 104.145 51.9154L104.809 52.6789C104.571 52.9632 104.271 53.178 103.907 53.3234C103.543 53.4689 103.134 53.5416 102.677 53.5416C102.096 53.5416 101.583 53.4259 101.141 53.1945C100.698 52.9632 100.354 52.6426 100.109 52.2327C99.8714 51.8163 99.7524 51.3469 99.7524 50.8247C99.7524 50.3091 99.8681 49.8464 100.099 49.4366C100.337 49.0201 100.665 48.6962 101.081 48.4648C101.498 48.2335 101.967 48.1178 102.489 48.1178C103.005 48.1178 103.464 48.2335 103.867 48.4648C104.277 48.6896 104.594 49.0102 104.819 49.4266C105.051 49.8365 105.166 50.3124 105.166 50.8545ZM102.489 49.1094C102.092 49.1094 101.755 49.2283 101.478 49.4663C101.207 49.6977 101.041 50.0084 100.982 50.3984H103.986C103.933 50.015 103.771 49.7043 103.5 49.4663C103.229 49.2283 102.892 49.1094 102.489 49.1094ZM111.334 50.8545C111.334 50.9404 111.328 51.0627 111.315 51.2214H107.16C107.233 51.6114 107.421 51.922 107.725 52.1534C108.036 52.3782 108.419 52.4905 108.875 52.4905C109.457 52.4905 109.936 52.2988 110.313 51.9154L110.977 52.6789C110.739 52.9632 110.439 53.178 110.075 53.3234C109.712 53.4689 109.302 53.5416 108.846 53.5416C108.264 53.5416 107.752 53.4259 107.309 53.1945C106.866 52.9632 106.522 52.6426 106.277 52.2327C106.04 51.8163 105.921 51.3469 105.921 50.8247C105.921 50.3091 106.036 49.8464 106.268 49.4366C106.506 49.0201 106.833 48.6962 107.249 48.4648C107.666 48.2335 108.135 48.1178 108.657 48.1178C109.173 48.1178 109.632 48.2335 110.035 48.4648C110.445 48.6896 110.763 49.0102 110.987 49.4266C111.219 49.8365 111.334 50.3124 111.334 50.8545ZM108.657 49.1094C108.261 49.1094 107.923 49.2283 107.646 49.4663C107.375 49.6977 107.21 50.0084 107.15 50.3984H110.154C110.102 50.015 109.94 49.7043 109.669 49.4663C109.398 49.2283 109.06 49.1094 108.657 49.1094ZM113.705 48.9507C114.062 48.3954 114.69 48.1178 115.589 48.1178V49.2977C115.483 49.2779 115.387 49.268 115.301 49.268C114.819 49.268 114.442 49.4101 114.171 49.6944C113.9 49.972 113.764 50.3752 113.764 50.9041V53.4722H112.525V48.1773H113.705V48.9507ZM116.64 48.1773H117.88V53.4722H116.64V48.1773ZM117.265 47.3047C117.04 47.3047 116.852 47.2353 116.7 47.0965C116.548 46.9511 116.472 46.7726 116.472 46.5611C116.472 46.3495 116.548 46.1744 116.7 46.0355C116.852 45.8901 117.04 45.8174 117.265 45.8174C117.49 45.8174 117.678 45.8868 117.83 46.0256C117.982 46.1578 118.058 46.3264 118.058 46.5313C118.058 46.7495 117.982 46.9346 117.83 47.0866C117.685 47.232 117.496 47.3047 117.265 47.3047ZM122.511 48.1178C123.178 48.1178 123.714 48.3128 124.117 48.7028C124.52 49.0928 124.722 49.6712 124.722 50.438V53.4722H123.483V50.5967C123.483 50.134 123.373 49.7869 123.155 49.5555C122.937 49.3176 122.627 49.1986 122.223 49.1986C121.767 49.1986 121.407 49.3374 121.143 49.615C120.878 49.8861 120.746 50.2794 120.746 50.795V53.4722H119.506V48.1773H120.686V48.8615C120.891 48.6169 121.149 48.4318 121.46 48.3062C121.77 48.1806 122.121 48.1178 122.511 48.1178ZM131.598 48.1773V52.669C131.598 54.5331 130.646 55.4652 128.742 55.4652C128.233 55.4652 127.751 55.3991 127.295 55.2669C126.838 55.1413 126.462 54.9562 126.164 54.7116L126.72 53.7795C126.951 53.9712 127.242 54.1233 127.592 54.2357C127.949 54.3546 128.309 54.4141 128.673 54.4141C129.255 54.4141 129.681 54.2819 129.952 54.0175C130.223 53.7531 130.358 53.3499 130.358 52.8078V52.5302C130.147 52.7616 129.889 52.9367 129.585 53.0557C129.281 53.1747 128.947 53.2342 128.584 53.2342C128.081 53.2342 127.625 53.1284 127.215 52.9169C126.812 52.6988 126.491 52.3947 126.253 52.0047C126.022 51.6147 125.906 51.1685 125.906 50.6661C125.906 50.1637 126.022 49.7208 126.253 49.3374C126.491 48.9474 126.812 48.6466 127.215 48.4351C127.625 48.2236 128.081 48.1178 128.584 48.1178C128.967 48.1178 129.314 48.1806 129.625 48.3062C129.942 48.4318 130.206 48.6235 130.418 48.8813V48.1773H131.598ZM128.772 52.1832C129.241 52.1832 129.625 52.0443 129.922 51.7667C130.226 51.4825 130.378 51.1156 130.378 50.6661C130.378 50.2232 130.226 49.8629 129.922 49.5853C129.625 49.3077 129.241 49.1688 128.772 49.1688C128.296 49.1688 127.906 49.3077 127.602 49.5853C127.305 49.8629 127.156 50.2232 127.156 50.6661C127.156 51.1156 127.305 51.4825 127.602 51.7667C127.906 52.0443 128.296 52.1832 128.772 52.1832ZM141.292 52.3914V53.4722H136.087V46.5313H141.154V47.6121H137.376V49.4167H140.727V50.4777H137.376V52.3914H141.292ZM145.885 53.4722L144.526 51.6378L143.158 53.4722H141.79L143.852 50.7851L141.879 48.1773H143.257L144.556 49.9125L145.855 48.1773H147.194L145.211 50.7652L147.283 53.4722H145.885ZM150.452 53.5416C149.904 53.5416 149.411 53.4259 148.975 53.1945C148.539 52.9632 148.198 52.6426 147.954 52.2327C147.709 51.8163 147.587 51.3469 147.587 50.8247C147.587 50.3025 147.709 49.8365 147.954 49.4266C148.198 49.0168 148.535 48.6962 148.965 48.4648C149.401 48.2335 149.897 48.1178 150.452 48.1178C150.975 48.1178 151.431 48.2236 151.821 48.4351C152.217 48.6466 152.515 48.9507 152.713 49.3473L151.761 49.9026C151.609 49.658 151.418 49.4762 151.186 49.3572C150.961 49.2316 150.714 49.1688 150.443 49.1688C149.98 49.1688 149.596 49.3209 149.292 49.625C148.988 49.9224 148.836 50.3223 148.836 50.8247C148.836 51.3271 148.985 51.7303 149.282 52.0344C149.587 52.3319 149.973 52.4806 150.443 52.4806C150.714 52.4806 150.961 52.4211 151.186 52.3021C151.418 52.1765 151.609 51.9915 151.761 51.7469L152.713 52.3021C152.508 52.6988 152.208 53.0061 151.811 53.2243C151.421 53.4358 150.968 53.5416 150.452 53.5416ZM158.685 50.8545C158.685 50.9404 158.678 51.0627 158.665 51.2214H154.51C154.583 51.6114 154.771 51.922 155.075 52.1534C155.386 52.3782 155.77 52.4905 156.226 52.4905C156.807 52.4905 157.287 52.2988 157.663 51.9154L158.328 52.6789C158.09 52.9632 157.789 53.178 157.425 53.3234C157.062 53.4689 156.652 53.5416 156.196 53.5416C155.614 53.5416 155.102 53.4259 154.659 53.1945C154.216 52.9632 153.872 52.6426 153.628 52.2327C153.39 51.8163 153.271 51.3469 153.271 50.8247C153.271 50.3091 153.387 49.8464 153.618 49.4366C153.856 49.0201 154.183 48.6962 154.6 48.4648C155.016 48.2335 155.485 48.1178 156.008 48.1178C156.523 48.1178 156.983 48.2335 157.386 48.4648C157.796 48.6896 158.113 49.0102 158.338 49.4266C158.569 49.8365 158.685 50.3124 158.685 50.8545ZM156.008 49.1094C155.611 49.1094 155.274 49.2283 154.996 49.4663C154.725 49.6977 154.56 50.0084 154.5 50.3984H157.505C157.452 50.015 157.29 49.7043 157.019 49.4663C156.748 49.2283 156.411 49.1094 156.008 49.1094ZM159.875 46.1149H161.115V53.4722H159.875V46.1149ZM162.741 46.1149H163.981V53.4722H162.741V46.1149ZM170.585 50.8545C170.585 50.9404 170.579 51.0627 170.565 51.2214H166.411C166.484 51.6114 166.672 51.922 166.976 52.1534C167.287 52.3782 167.67 52.4905 168.126 52.4905C168.708 52.4905 169.187 52.2988 169.564 51.9154L170.228 52.6789C169.99 52.9632 169.69 53.178 169.326 53.3234C168.962 53.4689 168.553 53.5416 168.096 53.5416C167.515 53.5416 167.002 53.4259 166.56 53.1945C166.117 52.9632 165.773 52.6426 165.528 52.2327C165.29 51.8163 165.171 51.3469 165.171 50.8247C165.171 50.3091 165.287 49.8464 165.518 49.4366C165.756 49.0201 166.084 48.6962 166.5 48.4648C166.917 48.2335 167.386 48.1178 167.908 48.1178C168.424 48.1178 168.883 48.2335 169.286 48.4648C169.696 48.6896 170.013 49.0102 170.238 49.4266C170.47 49.8365 170.585 50.3124 170.585 50.8545ZM167.908 49.1094C167.511 49.1094 167.174 49.2283 166.897 49.4663C166.626 49.6977 166.46 50.0084 166.401 50.3984H169.405C169.352 50.015 169.19 49.7043 168.919 49.4663C168.648 49.2283 168.311 49.1094 167.908 49.1094ZM174.78 48.1178C175.448 48.1178 175.983 48.3128 176.387 48.7028C176.79 49.0928 176.991 49.6712 176.991 50.438V53.4722H175.752V50.5967C175.752 50.134 175.643 49.7869 175.425 49.5555C175.207 49.3176 174.896 49.1986 174.493 49.1986C174.037 49.1986 173.676 49.3374 173.412 49.615C173.147 49.8861 173.015 50.2794 173.015 50.795V53.4722H171.776V48.1773H172.956V48.8615C173.161 48.6169 173.418 48.4318 173.729 48.3062C174.04 48.1806 174.39 48.1178 174.78 48.1178ZM181.041 53.5416C180.493 53.5416 180 53.4259 179.564 53.1945C179.128 52.9632 178.787 52.6426 178.543 52.2327C178.298 51.8163 178.176 51.3469 178.176 50.8247C178.176 50.3025 178.298 49.8365 178.543 49.4266C178.787 49.0168 179.124 48.6962 179.554 48.4648C179.99 48.2335 180.486 48.1178 181.041 48.1178C181.564 48.1178 182.02 48.2236 182.41 48.4351C182.806 48.6466 183.104 48.9507 183.302 49.3473L182.35 49.9026C182.198 49.658 182.006 49.4762 181.775 49.3572C181.55 49.2316 181.302 49.1688 181.031 49.1688C180.569 49.1688 180.185 49.3209 179.881 49.625C179.577 49.9224 179.425 50.3223 179.425 50.8247C179.425 51.3271 179.574 51.7303 179.871 52.0344C180.175 52.3319 180.562 52.4806 181.031 52.4806C181.302 52.4806 181.55 52.4211 181.775 52.3021C182.006 52.1765 182.198 51.9915 182.35 51.7469L183.302 52.3021C183.097 52.6988 182.796 53.0061 182.4 53.2243C182.01 53.4358 181.557 53.5416 181.041 53.5416ZM189.274 50.8545C189.274 50.9404 189.267 51.0627 189.254 51.2214H185.099C185.172 51.6114 185.36 51.922 185.664 52.1534C185.975 52.3782 186.358 52.4905 186.815 52.4905C187.396 52.4905 187.876 52.2988 188.252 51.9154L188.917 52.6789C188.679 52.9632 188.378 53.178 188.014 53.3234C187.651 53.4689 187.241 53.5416 186.785 53.5416C186.203 53.5416 185.691 53.4259 185.248 53.1945C184.805 52.9632 184.461 52.6426 184.217 52.2327C183.979 51.8163 183.86 51.3469 183.86 50.8247C183.86 50.3091 183.975 49.8464 184.207 49.4366C184.445 49.0201 184.772 48.6962 185.188 48.4648C185.605 48.2335 186.074 48.1178 186.596 48.1178C187.112 48.1178 187.571 48.2335 187.975 48.4648C188.385 48.6896 188.702 49.0102 188.927 49.4266C189.158 49.8365 189.274 50.3124 189.274 50.8545ZM186.596 49.1094C186.2 49.1094 185.863 49.2283 185.585 49.4663C185.314 49.6977 185.149 50.0084 185.089 50.3984H188.094C188.041 50.015 187.879 49.7043 187.608 49.4663C187.337 49.2283 187 49.1094 186.596 49.1094Z" fill="#83A2FC"/>
</svg>
